<svg width="24" height="24" viewBox="0 0 24 24" fill="none" xmlns="http://www.w3.org/2000/svg">
<path d="M4.7031 0C2.11673 0 0 2.11675 0 4.7031V19.2976C0 21.884 2.11673 24 4.7031 24H19.2976C21.884 24 24 21.884 24 19.2976V4.7031C24 2.11673 21.884 0 19.2976 0H4.7031ZM12.8188 4.48453C15.0764 4.66691 16.3878 6.1248 16.5439 7.98876C16.6651 8.94803 16.6312 9.65986 16.4928 10.1837C17.7805 10.2263 19.2873 10.8037 19.3833 12.8992V14.9619C19.2498 16.7633 18.6088 18.9879 15.3202 19.46C14.5797 19.5662 13.7487 19.4951 12.6708 19.4877C11.587 19.4592 10.6421 19.4643 9.81561 19.4795C6.47963 19.5406 4.64221 18.074 4.62499 14.9348C4.5982 13.8665 4.6406 12.7083 4.63702 11.2714C4.62362 10.3608 4.61858 9.40953 4.63928 8.52507C4.64569 8.35246 4.62317 8.16326 4.66857 7.97747C4.81215 5.95354 6.43768 4.76737 8.33505 4.50405L12.8188 4.48451L12.8188 4.48453ZM9.06967 7.29993C7.14799 7.61456 7.05303 9.80754 9.06967 10.0785H12.7174C14.639 9.76389 14.734 7.57091 12.7174 7.29993H9.06967ZM8.24113 13.3702C6.26281 13.6773 6.23371 16.1682 8.31174 16.4259L15.013 16.45C16.9745 16.1455 16.9687 13.6571 14.9423 13.3934L8.24113 13.3702V13.3702Z" fill="black"/>
</svg>
